# xmcd
#
# Track frame offsets: 
#        150
#        13083
#        31358
#        45958
#        62027
#        77054
#        96543
#        115299
#        137297
#        157083
#        179169
#        192398
#        217754
#        234239
#        249320
#        268079
#        288470
#
# Disc length: 4053 seconds
#
# Revision: 0
# Processed by: cddbd v1.5.2PL0 Copyright (c) Steve Scherf et al.
# Submitted via: ExactAudioCopy v0.99pb3
#
DISCID=ee0fd311
DTITLE=Various Artist - Ultimate Salsa CD 2
DYEAR=2009
DGENRE=Salsa
TTITLE0=01 - Ibrahim Ferrer - El Platanal De Bartolo
TTITLE1=02 - Ritmo Alegria - El Hosptial De Amor
TTITLE2=03 - Rubén González - Feliz Chachacha
TTITLE3=04 - Grupo Fresca - Guantanamera
TTITLE4=05 - Beny Moré - Que Bueno Baila Usted
TTITLE5=06 - Ritmo Alegria - Marchando Bien
TTITLE6=07 - Compay Segundo - San Luisera
TTITLE7=08 - Omara Portuondo and Adalberto Álvarez Y Su Son . Agua Que C
TTITLE7=ae Del Ciela
TTITLE8=09 - Ritmo Alegria - 537 C. U. B. A.
TTITLE9=10 - Compay Segundo - La Ternera
TTITLE10=11 - Orquesta Aragon - Pare Cochero
TTITLE11=12 - Ritmo Alegria - Vino Anjero
TTITLE12=13 - Grupo Fresca - El Manisero
TTITLE13=14 - Trio Habaney - Adios Compay Gato
TTITLE14=15 - Ritmo Alegria - Mueve La Cintura
TTITLE15=16 - Rio Combo - Brazil
TTITLE16=17 - Grupo Fresca - Bamboleo
EXTD=
EXTT0=
EXTT1=
EXTT2=
EXTT3=
EXTT4=
EXTT5=
EXTT6=
EXTT7=
EXTT8=
EXTT9=
EXTT10=
EXTT11=
EXTT12=
EXTT13=
EXTT14=
EXTT15=
EXTT16=
PLAYORDER=
